<svg id="Layer_1" data-name="Layer 1" xmlns="http://www.w3.org/2000/svg" viewBox="0 0 262.99 68.24"><defs><style>.cls-1{isolation:isolate;}.cls-2{fill:#fff;}.cls-3{fill:none;stroke:#fff;stroke-width:11px;}.cls-3,.cls-4{stroke-miterlimit:10;}.cls-4{fill:#9bdc28;stroke:#000;stroke-width:6px;}</style></defs><path d="M86.77,57.82h-.52q-1.81,5-3.71,10.42h4.75V57.82h-.52"/><g class="cls-1"><path class="cls-2" d="M42.64,57.63V68.24H10.19A10.19,10.19,0,0,1,0,58.05V.78H12.27V54.55a3.07,3.07,0,0,0,3.07,3.08Z"/></g><g class="cls-1"><path class="cls-2" d="M199.92,34.36A39.25,39.25,0,0,1,197.2,49.6a28.91,28.91,0,0,1-7.74,10.8,27.16,27.16,0,0,1-12.07,6.43c-4.92,1-9.78,1-15.61,1.24-2.85.12-5.5.17-9.08.17h-10V1.65A60.21,60.21,0,0,1,152.61.29C156.12.1,159.23,0,162,0a56.51,56.51,0,0,1,15.48,2,31.85,31.85,0,0,1,12,6.23,28,28,0,0,1,7.74,10.7A39.79,39.79,0,0,1,199.92,34.36ZM155,58c.71.06,1.65.11,2.82.14s2.76.05,4.77.05q12.36,0,18.45-6.28t6.08-17.57q0-11.47-5.94-17.62t-18.39-6.13a72.84,72.84,0,0,0-7.79.29Z"/></g><path class="cls-2" d="M81.34,27.84H54.06V11.19H85.12V.78H41.8V68.24H82.7q1.9-5.41,3.71-10.42H54.06V38.06H74.63"/><polygon class="cls-3" points="115.3 11.74 128.05 37.24 140.8 62.74 115.3 62.74 89.8 62.74 102.55 37.24 115.3 11.74"/><path class="cls-4" d="M257.46,30.66,215.1,6.43a4.85,4.85,0,0,0-6.58,1.75,4.69,4.69,0,0,0-.65,2.39V59a4.83,4.83,0,0,0,7.23,4.13l42.36-24.22a4.76,4.76,0,0,0,1.77-6.52A4.87,4.87,0,0,0,257.46,30.66Z"/></svg>